<?xml version="1.0" encoding="UTF-8" standalone="no"?>
<svg width="301px" height="544px" viewBox="0 0 301 544" version="1.1" xmlns="http://www.w3.org/2000/svg" xmlns:xlink="http://www.w3.org/1999/xlink">
    <!-- Generator: Sketch 3.8.1 (29687) - http://www.bohemiancoding.com/sketch -->
    <title>Slice 1</title>
    <desc>Created with Sketch.</desc>
    <defs>
        <polygon id="path-1" points="0.315 543.244 300.140625 543.244 300.140625 0.728 0.315 0.728 0.315 543.244"></polygon>
    </defs>
    <g id="Page-2" stroke="none" stroke-width="1" fill="none" fill-rule="evenodd">
        <g id="Group-1579">
            <mask id="mask-2" fill="white">
                <use xlink:href="#path-1"></use>
            </mask>
            <g id="Clip-1427"></g>
            <path d="M175.022,345.105 C175.022,345.105 190.882,345.22 201.827,360.876 C201.827,360.876 184.117,345.991 169.628,350.86 C169.628,350.86 173.085,346.707 175.022,345.105" id="Fill-1426" fill="#A58633" mask="url(#mask-2)"></path>
            <path d="M80.995,104.874 C80.995,104.874 82.111,113.045 80.229,115.612 C78.348,118.179 64.659,134.605 75.609,139.567 C75.609,139.567 70.133,136.488 73.727,129.643 C77.32,122.799 81.256,119.908 83.138,118.273 C85.021,116.639 85.565,114.572 85.565,114.572 L80.995,104.874" id="Fill-1428" fill="#0A0A08" mask="url(#mask-2)"></path>
            <path d="M144.84,28.268 C144.84,28.268 151.067,20.82 153.634,23.044 C156.2,25.269 162.306,35.82 166.782,40.041 C171.258,44.262 182.721,71.467 172.626,88.92 C162.531,106.373 141.143,135.974 122.664,153.598 L122.664,151.374 C122.664,151.374 160.648,105.787 164.755,84.435 C168.862,63.083 155.765,55.668 154.613,55.269 C153.463,54.871 143.424,58.634 136.694,74.491 L127.568,63.882 C127.568,63.882 123.576,42.436 123.576,42.094 C123.576,41.752 126.428,36.391 127.683,36.049 C128.938,35.706 144.84,28.268 144.84,28.268" id="Fill-1429" fill="#9B2428" mask="url(#mask-2)"></path>
            <path d="M135.104,79.128 C135.104,79.128 137.661,112.874 131.561,131.868 C131.561,131.868 129.508,142.362 131.561,157.419 L128.884,157.419 C128.884,157.419 127.683,147.382 130.649,127.533 C133.614,107.685 133.276,98.202 131.507,88.114 C131.507,88.114 128.837,82.966 135.104,79.128" id="Fill-1430" fill="#9B2428" mask="url(#mask-2)"></path>
            <path d="M96.511,129.283 C96.511,129.283 84.655,111.862 75.789,111.063 C75.789,111.063 86.149,113.116 94.425,132.248 L96.511,129.283" id="Fill-1431" fill="#0A0A08" mask="url(#mask-2)"></path>
            <path d="M64.863,165.514 C64.863,165.514 81.271,196.865 90.647,207.131 C90.647,207.131 102.077,216.029 102.761,225.611 C102.761,225.611 109.605,262.226 104.814,269.757 C104.814,269.757 101.735,275.574 102.761,288.578 C103.788,301.582 103.331,299.757 102.875,304.548 C102.419,309.336 92.608,346.753 91.697,368.654 C91.697,368.654 83.939,413.369 100.365,438.919 C100.365,438.919 102.191,470.861 95.803,488.655 C95.803,488.655 83.484,516.033 92.152,536.566 C100.821,557.098 97.628,575.804 97.17,594.513 L115.423,594.513 C115.423,594.513 113.369,569.875 117.476,551.052 C121.583,532.23 126.031,517.517 124.663,493.22 C124.663,493.22 125.347,474.056 126.374,455.919 C127.4,437.782 135.271,408.692 135.271,395.689 C135.271,382.687 138.727,339.567 140.935,331.011 C140.935,331.011 143.142,328.275 144.511,329.642 C145.88,331.011 142.8,339.224 144.511,346.753 C146.222,354.283 146.393,360.27 143.484,365.062 C140.575,369.853 138.009,378.408 144.34,386.792 C144.34,386.792 153.58,404.929 169.492,403.902 C169.492,403.902 183.694,403.046 187.63,395.175 C191.564,387.304 194.19,375.954 183.523,373.959 C183.523,373.959 177.102,371.878 175.391,379.912 L176.28,380.012 C176.28,380.012 175.558,375.208 180.246,374.65 C185.11,374.073 188.951,376.191 189.806,379.72 C190.662,383.246 189.911,389.645 185.462,393.179 C181.014,396.716 172.915,398.997 169.264,397.286 C165.614,395.574 157.4,388.162 158.884,377.097 C160.366,366.032 168.186,348.3 180.215,341.962 C191.782,335.869 214.892,324.395 246.832,310.708 C278.771,297.019 277.632,293.595 284.932,288.578 C292.232,283.558 294.228,281.734 296.11,280.365 C297.992,278.996 300.046,273.862 300.046,268.216 C300.046,262.57 297.479,257.608 295.426,256.582 C293.372,255.552 289.266,257.437 283.106,256.068 C276.947,254.699 251.965,251.619 240.159,252.303 C228.353,252.988 201.488,257.095 173.256,270.955 C173.256,270.955 169.835,271.638 167.439,268.044 C165.044,264.452 163.504,264.281 160.937,264.281 C158.37,264.281 152.724,256.239 151.184,248.881 C149.645,241.524 152.724,214.831 152.381,210.04 C152.039,205.25 152.609,145.902 151.013,141.041 C149.416,136.179 147.819,135.333 143.941,134.502 C140.063,133.67 131.513,142.339 127.803,145.305 C124.093,148.271 122.496,145.276 122.496,145.276 L103.492,144.62 L93.978,135.478 L87.215,134.502 L82.24,137.891 L74.687,155.189 L64.863,165.514" id="Fill-1432" fill="#CCC6A8" mask="url(#mask-2)"></path>
            <path d="M94.435,116.332 C94.435,116.332 95.973,122.034 96.002,126.939 C96.031,131.844 91.239,136.635 89.87,137.891 C89.87,137.891 100.594,157.396 111.545,163.784 C111.545,163.784 117.476,149.867 121.583,146.446 L122.496,145.276 C122.496,145.276 122.813,135.689 124.728,126.627 C126.836,116.649 120.665,82.918 119.867,79.066 L107.723,77.14 L92.666,81.658 C92.666,81.658 88.217,93.131 88.901,95.036 C89.586,96.939 94.435,116.332 94.435,116.332" id="Fill-1433" fill="#ABA586" mask="url(#mask-2)"></path>
            <path d="M96.002,126.94 C96.002,126.94 100.505,137.603 100.391,142.741 C100.275,147.878 105.06,149.585 107.003,147.591 C108.945,145.598 115.327,141.947 116.471,136.472 C117.614,130.997 119.782,128.278 119.382,122.109 C118.982,115.939 119.065,112.004 119.065,112.004 L100.566,116.415 L95.988,126.392" id="Fill-1434" fill="#908B6D" mask="url(#mask-2)"></path>
            <path d="M34.266,484.806 C34.266,484.806 38.181,483.166 39.103,481.461 C39.103,481.461 49.83,478.316 54.059,475.727 C58.287,473.14 57.572,470.734 56.064,470.466 C54.558,470.203 53.505,471.467 51.366,470.675 C49.227,469.884 47.377,466.864 45.408,467.449 C43.439,468.036 38.824,470.121 37.608,472.031 C37.608,472.031 38.142,467.825 47.294,464.984 C47.294,464.984 38.933,461.283 34.072,465.343 C34.072,465.343 38.689,460.064 47.126,460.82 C47.126,460.82 48.129,458.192 49.834,457.921 C51.54,457.652 54.816,458.667 54.75,456.441 C54.683,454.218 52.55,451.044 49.907,450.164 C47.266,449.283 45.063,447.677 40.756,448.6 C36.449,449.525 40.561,447.947 40.561,447.947 C40.561,447.947 24.876,457.429 24.384,457.577 C23.891,457.722 20.408,468.22 20.014,468.695 C19.618,469.167 16.029,476.306 16.68,477.898 C17.333,479.488 20.109,485.823 20.109,485.823 C20.109,485.823 24.426,487.732 25.081,487.537 C25.736,487.343 34.266,484.806 34.266,484.806" id="Fill-1435" fill="#CCC6A8" mask="url(#mask-2)"></path>
            <path d="M17.831,450.274 C17.831,450.274 12.761,431.7 10.005,428.233 C7.248,424.768 8.715,424.094 12.952,424.738 C17.19,425.382 24.638,436.019 25.027,437.333 C25.417,438.644 18.366,426.936 19.879,424.82 C21.392,422.707 23.863,422.208 26.351,423.373 C28.839,424.535 32.841,423.585 32.763,428.128 C32.687,432.673 33.096,435.648 32.917,436.652 C32.74,437.656 35.72,434.867 37.563,431.463 C39.406,428.059 40.004,425.259 42.184,426.994 C44.366,428.724 48.421,432.755 50.3,432.673 C52.179,432.591 41.872,438.75 41.275,441.543 C41.275,441.543 48.318,434.214 51.989,434.55 C55.659,434.886 54.572,437.237 54.985,439.222 C55.398,441.211 56.063,441.193 56.457,442.148 C56.852,443.103 47.372,445.193 46.168,448.771 L17.831,450.274" id="Fill-1436" fill="#EB8B2F" mask="url(#mask-2)"></path>
            <path d="M34.194,478.161 C34.194,478.161 35.423,475.894 36.047,475.587 C36.671,475.286 31.934,473.361 30.181,475.074 C30.181,475.074 33.313,476.4 34.194,478.161" id="Fill-1437" fill="#0A0A08" mask="url(#mask-2)"></path>
            <path d="M44.358,428.839 L74.142,332.757 C74.142,332.757 70.807,328.751 67.787,330.603 L32.953,435.391 L38.905,436.776 L44.358,428.839" id="Fill-1438" fill="#50341E" mask="url(#mask-2)"></path>
            <path d="M35.606,517.73 C35.606,517.73 2.615,515.64 2.4,478.095 C2.4,478.095 1.439,441.253 40.756,448.6 C40.756,448.6 28.537,454.734 30.098,459.984 C31.658,465.23 27.226,468.335 27.226,468.335 C27.226,468.335 14.867,482.005 34.266,484.806 C34.266,484.806 20.147,494.728 25.135,505.729 C25.135,505.729 29.56,515.004 35.606,517.73" id="Fill-1439" fill="#0A0A08" mask="url(#mask-2)"></path>
            <path d="M65.608,322.463 C65.608,322.463 73.247,337.71 88.941,337.253 C88.941,337.253 75.093,341.536 59.288,325.257 L65.608,322.463" id="Fill-1440" fill="#D2232A" mask="url(#mask-2)"></path>
            <path d="M122.496,179.592 C122.496,179.592 125.347,174.963 126.031,170.685 C126.716,166.408 125.066,147.612 129.912,141.268 C134.758,134.924 143.183,128.717 146.641,132.248 C150.098,135.778 151.586,145.698 151.693,148.605 C151.802,151.512 155.804,167.264 147.591,176.845 C139.378,186.427 138.79,192.587 137.629,192.587 C136.469,192.587 131.678,195.838 130.139,193.443 C128.598,191.047 122.21,187.282 122.496,186.599 C122.781,185.914 122.496,179.592 122.496,179.592" id="Fill-1441" fill="#CCC6A8" mask="url(#mask-2)"></path>
            <path d="M143.928,162.281 C143.928,162.281 142.508,144.723 131.601,142.023 C131.601,142.023 138.461,127.245 146.641,132.248 C146.641,132.248 152.107,137.373 151.801,149.641 C151.801,149.641 145.141,160.51 143.928,162.281" id="Fill-1442" fill="#0A0A08" mask="url(#mask-2)"></path>
            <polyline id="Fill-1443" fill="#8C2226" mask="url(#mask-2)" points="135.662 544.291 142.262 544.798 152.951 405.47 146.351 404.966 135.662 544.291"></polyline>
            <path d="M70.589,80.115 C70.589,80.115 73.271,93.654 80.344,103.806 C80.344,103.806 81.826,104.848 82.283,107.008 C82.739,109.167 84.45,111.905 86.047,115.669 C87.645,119.434 90.496,124.111 96.884,127.418 C96.884,127.418 99.879,130.586 102.088,134.421 C102.088,134.421 106.922,137.115 111.257,131.412 C115.591,125.708 121.866,114.872 121.866,112.932 C121.866,110.993 123.918,108.655 122.664,99.957 L123.576,77.114 L119.47,65.935 C119.47,65.935 112.853,57.494 112.511,57.38 C112.169,57.266 96.313,57.38 96.313,57.38 L82.51,69.699 L72.017,75.194 L70.589,80.115" id="Fill-1444" fill="#CCC6A8" mask="url(#mask-2)"></path>
            <path d="M81.256,96.278 C81.256,96.278 65.172,79.167 64.146,55.896 C64.146,55.896 58.67,29.889 64.146,21.333 C64.146,21.333 69.165,14.946 74.526,14.261 C74.526,14.261 78.747,14.717 80.571,21.562 C80.571,21.562 82.283,31.143 84.678,35.364 C87.073,39.584 91.979,47.456 95.059,48.026 C95.059,48.026 68.594,61.373 81.256,96.278" id="Fill-1445" fill="#D9222A" mask="url(#mask-2)"></path>
            <path d="M62.957,49.026 C62.957,49.026 60.381,63.083 50.799,74.719 C50.799,74.719 12.814,117.837 27.871,166.431 C27.871,166.431 33.346,198.256 54.906,219.816 L55.762,218.961 C55.762,218.961 27.985,193.464 29.811,144.187 C29.811,144.187 28.365,112.589 61.712,80.308 C61.712,80.308 65.922,77.084 66.631,70.083 L62.957,49.026" id="Fill-1446" fill="#D2232A" mask="url(#mask-2)"></path>
            <path d="M90,43.578 C90,43.578 95.629,34.166 98.024,30.915 C100.42,27.664 104.013,15.402 104.697,14.261 C105.382,13.121 111.199,11.638 113.767,14.261 C116.332,16.884 118.557,24.071 118.557,26.809 L102.132,46.828 L97.853,49.737 C97.853,49.737 90.019,47.17 90,46.657 C89.982,46.144 90,43.578 90,43.578" id="Fill-1447" fill="#B9242A" mask="url(#mask-2)"></path>
            <path d="M95.059,48.026 C95.059,48.026 110.888,36.156 113.424,33.065 C115.96,29.973 122.321,18.596 124.032,16.542 C125.743,14.489 128.481,14.832 132.417,18.253 C136.352,21.676 147.645,31.086 154.147,34.337 C160.648,37.588 195.726,50.763 209.756,70.44 C223.787,90.118 229.262,101.411 232.171,119.719 C232.171,119.719 233.711,143.332 224.642,153.598 L223.787,152.571 C223.787,152.571 232.855,138.711 228.749,115.442 C228.749,115.442 218.312,77.627 194.87,64.11 C194.87,64.11 174.337,49.737 151.237,50.593 C151.237,50.593 135.839,49.737 132.417,44.09 C132.417,44.09 128.823,51.79 133.785,66.164 C133.785,66.164 137.492,70.041 136.694,74.491 L117.53,73.52 C117.53,73.52 115.135,60.174 106.066,60.688 C106.066,60.688 96.601,59.236 88.271,75.745 C88.271,75.745 83.039,86.96 81.256,96.278 C81.256,96.278 65.229,61.542 95.059,48.026" id="Fill-1448" fill="#D9222A" mask="url(#mask-2)"></path>
            <path d="M117.53,73.52 C117.53,73.52 117.873,94.909 122.664,103.122 C127.454,111.335 131.561,114.073 130.192,126.392 C130.192,126.392 133.843,115.556 126.428,104.947 C126.428,104.947 123.919,101.353 123.919,99.957 C123.919,98.559 125.401,100.156 126.77,98.103 C128.139,96.05 129.501,88.144 129.386,85.064 C129.272,81.985 136.992,78.314 136.694,74.491 L117.53,73.52" id="Fill-1449" fill="#0A0A08" mask="url(#mask-2)"></path>
            <path d="M123.919,99.957 C123.919,99.957 127.818,99.032 128.491,95.088 C129.166,91.144 130.775,81.485 135.104,79.128 C135.104,79.128 123.348,78.027 122.664,87.38 L123.919,99.957" id="Fill-1450" fill="#CCC6A8" mask="url(#mask-2)"></path>
            <path d="M124.677,94.653 C124.677,94.653 126.595,94.199 126.926,92.26 C127.257,90.32 128.048,85.57 130.177,84.411 C130.177,84.411 124.396,83.869 124.059,88.469 L124.677,94.653" id="Fill-1451" fill="#9C987F" mask="url(#mask-2)"></path>
            <path d="M89.982,106.544 C89.982,106.544 98.965,99.357 101.019,90.802 C101.019,90.802 102.685,82.554 99.605,76.747 C99.564,76.668 99.521,76.592 99.479,76.515 C99.479,76.515 97.938,75.488 97.426,77.713 C97.426,77.713 97.682,73.777 99.992,75.745 C99.992,75.745 103.072,76.857 103.329,89.005 C103.329,89.005 103.842,93.027 107.35,95.679 L109.546,96.734 C109.546,96.734 110.686,109.624 89.982,106.544" id="Fill-1452" fill="#0A0A08" mask="url(#mask-2)"></path>
            <path d="M97.568,103.35 L104.413,96.278 C104.413,96.278 106.237,103.692 97.568,103.806" id="Fill-1453" fill="#FFFFFF" mask="url(#mask-2)"></path>
            <path d="M102.996,102.011 C102.996,102.011 109.796,106.286 108.029,109.956 C106.793,112.524 105.225,111.838 104.88,110.812 C104.533,109.786 105.377,109.11 105.486,109.11 C105.486,109.11 104.393,110.997 106.021,111.249 C106.021,111.249 110.638,109.083 102.088,103.08 L102.996,102.011" id="Fill-1454" fill="#0A0A08" mask="url(#mask-2)"></path>
            <path d="M87.529,106.43 C87.529,106.43 85.135,102.324 82.51,101.296 C79.887,100.27 75.592,95.621 74.46,92.631 C74.46,92.631 77.847,100.531 79.668,102.808 C79.668,102.808 82.055,101.639 87.529,106.43" id="Fill-1455" fill="#0A0A08" mask="url(#mask-2)"></path>
            <path d="M85.135,107.019 C85.135,107.019 84.906,110.365 86.674,111.563 C88.442,112.761 88.556,110.365 87.929,109.909 C87.929,109.909 88.299,111.849 87.529,111.621 C87.529,111.621 85.306,111.049 85.676,107.008 L85.125,106.694 L85.135,107.019" id="Fill-1456" fill="#0A0A08" mask="url(#mask-2)"></path>
            <path d="M92.364,124.417 C92.364,124.417 95.229,123.997 97.568,125.023 C99.906,126.05 99.77,125.023 99.77,125.023 L100.676,123.141 C100.676,123.141 109.488,120.888 116.076,112.004 C116.076,112.004 117.958,107.067 115.392,107.019 C115.392,107.019 113.994,107.17 114.764,108.455 C114.764,108.455 115.135,109.368 114.365,109.41 C114.365,109.41 113.382,109.966 113.296,108.341 C113.21,106.715 114.065,105.859 115.135,106.031 C116.205,106.202 118.729,107.057 117.017,111.463 C115.306,115.869 110.746,118.265 107.979,121.088 C105.211,123.912 103.799,126.991 102.217,127.975 C100.634,128.959 99.324,129.256 97.647,128.273 C97.647,128.273 97.61,127.827 96.686,127.315 C95.761,126.803 92.364,124.417 92.364,124.417" id="Fill-1457" fill="#D9242A" mask="url(#mask-2)"></path>
            <path d="M92.252,122.109 C90.788,122.109 89.749,121.054 89.736,121.04 L89.656,120.958 L87.937,107.049 L87.967,107.019 L90.307,120.639 C90.625,120.924 91.838,121.874 93.316,121.177 C94.156,120.783 94.698,120.277 95.224,119.789 C95.869,119.187 96.478,118.619 97.501,118.415 C99.368,118.041 100.671,117.469 100.822,116.959 C100.839,116.902 100.89,116.728 100.566,116.415 C100.324,116.179 100.099,115.947 99.884,115.727 C98.792,114.604 98.178,114.029 97.176,114.316 C98.614,113.909 99.33,114.175 100.375,115.25 C100.585,115.465 100.805,115.692 101.044,115.923 C101.555,116.42 101.563,116.866 101.479,117.152 C101.178,118.174 99.223,118.768 97.636,119.085 C96.804,119.251 96.287,119.732 95.689,120.29 C95.152,120.79 94.544,121.356 93.608,121.796 C93.13,122.022 92.674,122.109 92.252,122.109" id="Fill-1458" fill="#0A0A08" mask="url(#mask-2)"></path>
            <path d="M94.344,131.417 C94.344,131.417 74.7,105.266 31.468,119.183 C31.468,119.183 69.892,103.055 89.87,137.891 L94.344,131.417" id="Fill-1459" fill="#0A0A08" mask="url(#mask-2)"></path>
            <path d="M63.921,131.417 C63.921,131.417 52.456,136.635 58.273,150.666 C58.273,150.666 57.734,139.968 74.687,135.478 C74.687,135.478 70.765,131.306 63.921,131.417" id="Fill-1460" fill="#CCC6A8" mask="url(#mask-2)"></path>
            <path d="M87.195,142.624 C87.195,142.624 90.441,154.659 88.901,166.522 C87.361,178.385 88.901,167.435 88.901,167.435 C88.901,167.435 89.207,172.909 93.646,175.875 C93.646,175.875 86.154,169.032 79.914,168.575 C79.914,168.575 62.723,174.279 57.932,152.149 L59.756,141.041 L67.058,137.891 L72.434,134.502 L78.693,134.502 L87.195,142.624" id="Fill-1461" fill="#CCC6A8" mask="url(#mask-2)"></path>
            <path d="M123.576,134.124 C123.576,134.124 131.091,119.753 159.25,122.109 C159.25,122.109 132.14,118.506 121.396,142.741 L123.576,134.124" id="Fill-1462" fill="#0A0A08" mask="url(#mask-2)"></path>
            <path d="M122.861,137.042 C122.861,137.042 152.763,112.004 187.197,139.567 C187.197,139.567 157.452,114.564 121.396,142.741 L122.861,137.042" id="Fill-1463" fill="#0A0A08" mask="url(#mask-2)"></path>
            <path d="M123.435,139.444 C123.435,139.444 155.942,118.273 194.427,151.285 C194.427,151.285 154.878,122.185 118.821,150.362 L123.435,139.444" id="Fill-1464" fill="#0A0A08" mask="url(#mask-2)"></path>
            <path d="M89.153,155.189 C89.153,155.189 92.55,159.221 96.002,161.274 C99.453,163.328 115.664,171.769 126.038,183.176 C126.038,183.176 129.353,188.196 134.023,189.107 C134.023,189.107 134.131,175.191 144.169,161.959 C154.207,148.727 161.279,128.594 160.366,121.322 C159.454,114.049 153.066,104.639 139.891,115.418 L136.982,117.904 C136.982,117.904 127.333,115.418 124.8,116.958 C124.8,116.958 124.609,113.876 127.562,111.784 C127.562,111.784 131.336,109.943 136.469,112.338 C136.469,112.338 146.222,109.772 147.933,92.832 C149.645,75.893 149.297,77.14 149.297,75.986 C149.297,74.75 149.725,69.876 150.41,68.543 C151.094,67.21 150.955,64.713 152.895,62.546 C152.895,62.546 149.297,61.357 148.584,57.849 C148.584,57.849 140.289,65.603 135.779,62.126 C135.779,62.126 147.409,51.661 148.014,49.722 C148.014,49.722 153.01,54.676 154.891,55.76 C154.891,55.76 164.816,31.235 169.036,27.242 C173.256,23.25 175.176,22.908 175.585,23.478 L177.478,25.987 C177.478,25.987 171.889,40.474 169.379,48.345 C166.869,56.216 164.586,62.49 165.386,69.22 C166.185,75.95 165.899,85.133 171.032,92.832 C176.165,100.532 176.736,96.568 177.478,101.031 C178.219,105.495 178.601,115.496 174.027,133.066 C169.452,150.636 167.953,163.67 167.953,172.396 C167.953,181.123 164.359,194.812 162.478,197.892 C160.595,200.971 152.895,207.473 147.933,212.777 C147.933,212.777 145.709,221.503 138.522,216.371 C131.336,211.238 122.951,203.88 114.567,201.656 C106.184,199.432 106.09,194.298 92.79,193.956 C92.79,193.956 87.875,193.443 84.453,186.255 C84.453,186.255 81.872,181.309 74.687,175.875 C67.501,170.442 64.863,165.514 64.863,165.514 L71.969,158.046 L89.153,155.189" id="Fill-1465" fill="#CCC6A8" mask="url(#mask-2)"></path>
            <path d="M114.567,201.656 C114.567,201.656 111.658,217.055 105.499,223.215 C99.339,229.375 82.229,242.379 78.464,252.645 C74.7,262.912 56.905,308.083 52.798,311.849 C48.692,315.612 49.49,325.082 49.49,327.819 C49.49,330.556 47.666,346.069 45.612,352.001 C45.612,352.001 44.243,353.939 44.927,360.329 C44.927,360.329 43.444,389.417 37.285,396.031 C37.285,396.031 38.768,399.111 41.277,397.058 C41.277,397.058 44.243,400.367 46.98,396.603 C49.718,392.838 58.273,368.542 57.247,361.355 C57.247,361.355 58.046,366.259 59.871,366.146 C61.696,366.032 73.445,361.697 74.244,360.214 C75.042,358.73 75.156,356.906 73.902,356.677 C73.902,356.677 80.404,353.939 78.009,350.404 L75.612,346.867 C75.612,346.867 80.518,343.9 80.176,342.076 C79.833,340.251 79.719,338.311 78.235,337.74 C76.753,337.171 74.129,339.34 74.129,339.34 C74.129,339.34 73.103,337.056 74.929,327.931 C76.753,318.805 75.727,312.532 77.667,306.031 C79.604,299.528 84.967,287.552 89.529,282.645 C94.092,277.742 104.13,270.212 108.693,257.892 C113.256,245.572 119.016,232.455 126.203,226.466 C133.389,220.477 136.64,217.625 138.237,212.607 C138.237,212.607 127.172,198.004 114.567,201.656" id="Fill-1466" fill="#CCC6A8" mask="url(#mask-2)"></path>
            <path d="M176.417,106.469 C176.417,106.469 202.597,67.73 242.806,89.76 C242.806,89.76 207.136,66.825 177.405,117.904 L171.203,117.904 L176.417,106.469" id="Fill-1467" fill="#D2232A" mask="url(#mask-2)"></path>
            <path d="M166.926,120.625 C166.926,120.625 151.626,91.547 128.305,126.668 C128.305,126.668 149.667,99.855 160.366,121.322 L166.926,120.625" id="Fill-1468" fill="#D2232A" mask="url(#mask-2)"></path>
            <path d="M57.742,303.023 C57.742,303.023 65.688,293.71 69.338,293.71 C69.338,293.71 66.484,286.705 65.858,284.447 C65.858,284.447 61.036,296.561 57.742,303.023" id="Fill-1469" fill="#0A0A08" mask="url(#mask-2)"></path>
            <path d="M69.338,293.71 C69.338,293.71 78.886,283.3 88.941,283.314 C88.941,283.314 78.13,297.746 76.436,313.314 C76.436,313.314 73.445,298.16 69.338,293.71" id="Fill-1470" fill="#0A0A08" mask="url(#mask-2)"></path>
            <path d="M71.109,271.57 C71.109,271.57 80.518,261.201 86.677,262.398 C86.677,262.398 84.215,248.86 79.885,249.641 C79.885,249.641 73.507,268.595 71.109,271.57" id="Fill-1471" fill="#0A0A08" mask="url(#mask-2)"></path>
            <path d="M86.677,262.398 C86.677,262.398 89.265,274.06 88.941,283.314 C88.941,283.314 93.158,279.4 96.606,275.691 C100.056,271.982 107.416,263.175 108.51,258.367 C108.51,258.367 96.031,256.068 86.677,262.398" id="Fill-1472" fill="#0A0A08" mask="url(#mask-2)"></path>
            <path d="M92.062,235.458 C92.062,235.458 103.138,229.889 108.51,231.942 C108.51,231.942 105.551,225.025 106.38,222.238 C106.38,222.238 102.411,226.556 100.447,227.866 C98.484,229.174 92.062,235.458 92.062,235.458" id="Fill-1473" fill="#0A0A08" mask="url(#mask-2)"></path>
            <path d="M108.51,231.942 C108.51,231.942 111.294,249.222 108.51,258.367 C108.51,258.367 112.333,248.24 114.278,244.254 C116.224,240.271 122.276,229.889 125.065,227.486 C125.065,227.486 113.689,231.542 108.51,231.942" id="Fill-1474" fill="#0A0A08" mask="url(#mask-2)"></path>
            <path d="M112.362,210.067 C112.362,210.067 117.1,206.021 125.065,206.646 C125.065,206.646 116.463,202.252 114.567,201.656 C114.567,201.656 113.34,207.255 112.362,210.067" id="Fill-1475" fill="#0A0A08" mask="url(#mask-2)"></path>
            <path d="M125.065,206.646 C125.065,206.646 134.043,215.286 131.535,221.902 C131.535,221.902 136.425,218.648 137.096,215.335 C137.096,215.335 127.157,207.932 125.065,206.646" id="Fill-1476" fill="#0A0A08" mask="url(#mask-2)"></path>
            <path d="M84.262,34.563 C84.262,34.563 78.474,37.417 76.957,43.235 C76.957,43.235 78.519,39.399 82.967,39.642 C82.967,39.642 85.558,41.695 84.262,43.235 C82.967,44.775 81.181,47.341 80.791,50.422 C80.791,50.422 82.69,46.486 84.625,46.144 C86.56,45.801 86.498,47.17 86.7,48.368 C86.902,49.566 77.811,55.65 79.191,63.73 C79.191,63.73 83.241,53.923 90.718,50.333 C90.718,50.333 93.82,48.961 95.059,48.026 C95.059,48.026 92.191,47.034 89.205,42.507 C86.22,37.982 84.262,34.563 84.262,34.563" id="Fill-1477" fill="#0A0A08" mask="url(#mask-2)"></path>
            <path d="M160.351,124.54 C160.351,124.54 163.552,129.916 166.926,131.221 C166.926,131.221 162.265,134.712 158.093,134.502 C158.093,134.502 160.761,126.977 160.351,124.54" id="Fill-1478" fill="#0A0A08" mask="url(#mask-2)"></path>
            <path d="M166.926,131.221 C166.926,131.221 174.015,130.526 175.088,128.751 C175.088,128.751 173.681,136.875 172.439,139.497 C172.439,139.497 167.967,133.659 166.926,131.221" id="Fill-1479" fill="#0A0A08" mask="url(#mask-2)"></path>
            <path d="M157.889,135.143 C157.889,135.143 160.619,142.747 161.075,147.309 C161.075,147.309 155.136,146.848 152.174,148.903 C152.174,148.903 156.277,140.31 157.889,135.143" id="Fill-1480" fill="#0A0A08" mask="url(#mask-2)"></path>
            <path d="M161.075,147.309 C161.075,147.309 167.492,141.039 172.439,139.497 C172.439,139.497 170.872,146.452 170.293,149.814 C169.715,153.177 168.863,158.739 168.616,161.226 C168.616,161.226 165.98,148.906 161.075,147.309" id="Fill-1481" fill="#0A0A08" mask="url(#mask-2)"></path>
            <path d="M168.616,161.226 C168.616,161.226 157.768,162.822 154.459,168.069 C154.459,168.069 167,171.176 167.574,178.007 C167.574,178.007 168.447,173.319 167.955,171.834 C167.463,170.351 168.482,162.409 168.616,161.226" id="Fill-1482" fill="#0A0A08" mask="url(#mask-2)"></path>
            <path d="M154.459,168.069 C154.459,168.069 151.717,155.851 149.667,153.576 C149.667,153.576 145.763,159.65 143.928,162.281 C143.928,162.281 141.171,166.214 140.201,168.069 C140.201,168.069 147.729,164.419 154.459,168.069" id="Fill-1483" fill="#0A0A08" mask="url(#mask-2)"></path>
            <path d="M137.625,173.482 C137.625,173.482 139.289,178.735 147.331,181.815 C147.331,181.815 139.708,189.214 134.023,189.107 C134.023,189.107 135.516,178.018 137.625,173.482" id="Fill-1484" fill="#0A0A08" mask="url(#mask-2)"></path>
            <path d="M147.331,181.815 C147.331,181.815 160.955,184.465 167.574,178.007 C167.574,178.007 165.178,193.2 163.219,196.349 C161.26,199.5 159.949,200.986 158.623,202.291 C157.297,203.595 148.015,194.135 147.331,181.815" id="Fill-1485" fill="#0A0A08" mask="url(#mask-2)"></path>
            <path d="M132.362,211.837 C132.362,211.837 139.696,209.088 140.746,201.07 C140.746,201.07 148.794,206.411 158.285,202.412 L147.933,212.777 C147.933,212.777 146.864,216.76 144.616,217.51 C144.616,217.51 142.262,219.539 137.096,215.335 L132.362,211.837" id="Fill-1486" fill="#0A0A08" mask="url(#mask-2)"></path>
            <path d="M134.023,189.107 C134.023,189.107 133.2,198.434 140.746,201.07 C140.746,201.07 128.96,198.823 123.515,205.861 C123.515,205.861 127.819,197.842 123.515,192.139 C123.515,192.139 128.53,195.431 134.023,189.107" id="Fill-1487" fill="#0A0A08" mask="url(#mask-2)"></path>
            <path d="M89.153,155.189 C89.153,155.189 93.519,165.673 92.79,168.069 C92.79,168.069 95.942,162.807 100.391,163.784 C100.391,163.784 95.312,160.983 93.993,159.875 C92.673,158.766 89.153,155.189 89.153,155.189" id="Fill-1488" fill="#0A0A08" mask="url(#mask-2)"></path>
            <path d="M92.79,168.069 C92.79,168.069 78.699,168.91 74.687,175.875 C74.687,175.875 82.455,182.001 85.377,187.982 C85.377,187.982 83.766,173.83 92.79,168.069" id="Fill-1489" fill="#0A0A08" mask="url(#mask-2)"></path>
            <path d="M85.898,188.806 C85.898,188.806 95.484,187.107 103.697,181.295 C103.697,181.295 99.617,190.445 108.51,198.972 C108.51,198.972 103.222,195.359 99.792,194.775 C99.792,194.775 94.725,193.797 93.094,193.966 C93.094,193.966 89.484,194.131 85.898,188.806" id="Fill-1490" fill="#0A0A08" mask="url(#mask-2)"></path>
            <path d="M103.697,181.295 C103.697,181.295 107.59,175.014 106.258,167.324 C106.258,167.324 114.864,172.691 119.382,176.819 C119.382,176.819 118.841,182.401 103.697,181.295" id="Fill-1491" fill="#0A0A08" mask="url(#mask-2)"></path>
            <path d="M119.382,176.819 C119.382,176.819 117.553,185.636 123.515,192.139 C123.515,192.139 121.23,185.393 126.038,183.176 C126.038,183.176 120.011,176.898 119.382,176.819" id="Fill-1492" fill="#0A0A08" mask="url(#mask-2)"></path>
            <path d="M123.515,192.139 C123.515,192.139 112.64,191.889 108.51,198.972 C108.51,198.972 112.295,201.236 114.135,201.536 C115.974,201.834 121.346,204.606 123.515,205.68 C123.515,205.68 127.994,198.412 123.515,192.139" id="Fill-1493" fill="#0A0A08" mask="url(#mask-2)"></path>
            <path d="M128.166,172.86 C128.166,172.86 138.004,168.454 143.565,162.772 C143.565,162.772 137.203,171.969 136.021,178.007 C136.021,178.007 134.005,185.16 134.069,188.574 C134.069,188.574 131.844,176.567 128.166,172.86" id="Fill-1494" fill="#0A0A08" mask="url(#mask-2)"></path>
            <path d="M83.738,197.484 C83.738,197.484 97.298,204.433 105.295,205.68 C105.295,205.68 103.354,211.796 97.594,214.172 C97.594,214.172 91.97,207.523 90.647,207.131 C89.324,206.739 83.738,197.484 83.738,197.484" id="Fill-1495" fill="#0A0A08" mask="url(#mask-2)"></path>
            <path d="M122.486,242.926 C122.486,242.926 108.022,263.416 105.295,268.807 L104.814,269.757 C104.814,269.757 125.599,289.765 128.166,301.239 C128.166,301.239 138.604,276.97 147.331,271.57 C147.331,271.57 124.42,252.465 122.486,242.926" id="Fill-1496" fill="#0A0A08" mask="url(#mask-2)"></path>
            <path d="M128.166,301.239 C128.166,301.239 106.766,318.82 99.934,336.666 C99.934,336.666 107.292,360.961 116.788,369.859 C116.788,369.859 146.394,344.486 140.935,331.011 C140.314,329.478 128.166,301.239 128.166,301.239" id="Fill-1497" fill="#0A0A08" mask="url(#mask-2)"></path>
            <path d="M98.103,327.093 C98.103,327.093 96.683,332.9 99.934,336.666 C99.934,336.666 96.455,341.713 93.489,351.851 C93.489,351.851 95.76,333.949 98.103,327.093" id="Fill-1498" fill="#0A0A08" mask="url(#mask-2)"></path>
            <path d="M90.472,378.924 C90.472,378.924 91.207,393.812 98.222,402.371 C98.222,402.371 91.833,406.429 91.521,414.154 C91.521,414.154 88.024,389.871 90.472,378.924" id="Fill-1499" fill="#0A0A08" mask="url(#mask-2)"></path>
            <path d="M98.222,402.371 C98.222,402.371 106.095,376.19 116.788,369.859 C116.788,369.859 124.905,391.355 135.176,398.402 C135.176,398.402 131.512,420.165 120.77,431.63 C120.77,431.63 98.564,414.689 98.222,402.371" id="Fill-1500" fill="#0A0A08" mask="url(#mask-2)"></path>
            <path d="M120.77,431.63 C120.77,431.63 110.2,451.82 103.355,457.466 C103.355,457.466 113.157,479.91 124.939,486.054 C124.939,486.054 125.627,469.87 125.956,463.701 C126.284,457.537 126.902,444.41 128.09,441.357 C129.278,438.302 128.09,441.125 128.09,441.125 C128.09,441.125 123.042,431.8 120.77,431.63" id="Fill-1501" fill="#0A0A08" mask="url(#mask-2)"></path>
            <path d="M103.355,457.466 C103.355,457.466 100.745,453.804 100.598,447.316 C100.598,447.316 101.046,463.771 99.748,468.66 C99.748,468.66 101.759,458.966 103.355,457.466" id="Fill-1502" fill="#0A0A08" mask="url(#mask-2)"></path>
            <path d="M93.381,495.107 C93.381,495.107 88.298,511.877 103.355,522.142 C103.355,522.142 89.814,530.187 92.152,536.566 C92.152,536.566 88.222,527.776 89.077,518.49 C89.933,509.207 93.381,495.107 93.381,495.107" id="Fill-1503" fill="#0A0A08" mask="url(#mask-2)"></path>
            <path d="M103.355,522.142 C103.355,522.142 122.264,507.953 124.787,495.798 C124.787,495.798 125.173,509.304 124.083,517.146 C124.083,517.146 121.492,535.851 119.995,539.862 C119.995,539.862 108.488,521.202 103.355,522.142" id="Fill-1504" fill="#0A0A08" mask="url(#mask-2)"></path>
            <path d="M156.626,400.744 C156.626,404.145 153.868,406.903 150.466,406.903 C147.064,406.903 144.306,404.145 144.306,400.744 C144.306,397.343 147.064,394.583 150.466,394.583 C153.868,394.583 156.626,397.343 156.626,400.744" id="Fill-1505" fill="#0A0A08" mask="url(#mask-2)"></path>
            <path d="M180.408,385.084 C180.408,388.486 177.65,391.243 174.248,391.243 C170.846,391.243 168.088,388.486 168.088,385.084 C168.088,381.681 170.846,378.924 174.248,378.924 C177.65,378.924 180.408,381.681 180.408,385.084" id="Fill-1506" fill="#0A0A08" mask="url(#mask-2)"></path>
            <path d="M111.158,251.564 C111.158,251.564 121.655,244.664 122.486,242.926 C123.318,241.188 131.253,230.011 137.096,231.15 C142.938,232.291 150.582,235.494 150.758,241.317 C150.758,241.317 151.523,225.66 151.708,223.058 C151.891,220.457 152.336,212.142 152.298,206.646 L130.236,213.477 L114.135,237.595 L109.721,245.483 L111.158,251.564" id="Fill-1507" fill="#0A0A08" mask="url(#mask-2)"></path>
            <path d="M150.758,241.317 C150.758,241.317 151.038,265.22 147.331,271.57 C147.331,271.57 151.125,267.887 171.899,270.964 C171.899,270.964 169.45,270.759 167.989,268.775 C166.527,266.79 165.466,264.687 163.813,264.628 C163.813,264.628 161.668,264.101 160.937,264.281 C160.937,264.281 159.394,264.062 157.953,262.303 C156.512,260.542 149.554,252.938 150.758,241.317" id="Fill-1508" fill="#0A0A08" mask="url(#mask-2)"></path>
            <path d="M173.256,270.955 C173.256,270.955 187.881,272.443 202.938,287.501 C202.938,287.501 204.112,260.334 216.017,255.952 C216.017,255.952 181.788,264.445 173.256,270.955" id="Fill-1509" fill="#0A0A08" mask="url(#mask-2)"></path>
            <path d="M235.771,315.498 C235.771,315.498 218.557,321.265 206.642,319.554 C206.642,319.554 206.56,327.996 198.213,332.68 C197.947,332.83 197.675,332.974 197.393,333.115 C188.231,337.689 229.184,318.363 235.771,315.498" id="Fill-1510" fill="#0A0A08" mask="url(#mask-2)"></path>
            <path d="M206.642,319.554 C206.642,319.554 203.011,306.096 209.733,298.281 C209.733,298.281 199.859,307.348 196.779,311 C196.779,311 193.464,315.375 182.454,319.28 C171.444,323.185 181.753,319.554 181.753,319.554 C181.753,319.554 194.375,323.089 206.642,319.554" id="Fill-1511" fill="#0A0A08" mask="url(#mask-2)"></path>
            <path d="M181.753,319.554 C181.753,319.554 172.548,326.514 173.256,334.728 C173.256,334.728 169.579,325.322 162.874,325.803 C162.874,325.803 178.133,321.38 181.753,319.554" id="Fill-1512" fill="#0A0A08" mask="url(#mask-2)"></path>
            <path d="M173.256,334.728 C173.256,334.728 179.297,338.433 194.112,334.728 C194.112,334.728 181.865,340.234 179.783,342.214 C179.783,342.214 171.991,347.262 170.396,350.86 C170.396,350.86 174.544,340.402 173.256,334.728" id="Fill-1513" fill="#0A0A08" mask="url(#mask-2)"></path>
            <path d="M162.874,325.803 C162.874,325.803 155.651,339.62 170.396,350.86 C170.396,350.86 153.151,372.835 161.105,388.972 C161.105,388.972 165.756,398.267 173.282,397.837 C173.282,397.837 185.315,397.267 188.779,388.439 C188.779,388.439 193.988,373.649 179.899,374.917 C179.899,374.917 175.885,375.453 176.28,380.012 L174.878,380.012 C174.878,380.012 175.438,373.761 180.461,373.822 C180.461,373.822 189.409,371.771 191.64,381.423 C191.64,381.423 192.201,390.427 185.678,397.853 C185.678,397.853 170.333,412.228 153.869,398.402 C153.869,398.402 143.118,390.849 140.746,379.784 C138.375,368.719 142.481,365.526 144.306,362.674 C146.132,359.822 145.553,349.576 144.245,345.345 C142.938,341.114 143.105,331.449 144.837,330.505 C145.19,330.312 145.512,330.262 145.512,330.262 C154.074,328.077 162.874,325.803 162.874,325.803" id="Fill-1514" fill="#8C2226" mask="url(#mask-2)"></path>
            <path d="M216.017,255.952 C216.017,255.952 227.579,256.929 237.388,273.814 C237.388,273.814 239.761,255.959 253.632,252.567 C253.632,252.567 238.152,251.38 230.469,253.299 C230.469,253.299 218.399,255.486 216.017,255.952" id="Fill-1515" fill="#0A0A08" mask="url(#mask-2)"></path>
            <path d="M253.632,252.567 C253.632,252.567 263.51,256.759 267.958,270.79 C267.958,270.79 270.192,257.087 283.106,256.068 C283.106,256.068 273.514,254.145 268.369,253.912 C268.369,253.912 257.043,252.481 253.632,252.567" id="Fill-1516" fill="#0A0A08" mask="url(#mask-2)"></path>
            <path d="M283.106,256.068 C283.106,256.068 290.374,258.47 291.571,268.564 C291.571,268.564 294.846,273.699 299.967,270.107 C299.967,270.107 301.505,261.791 295.426,256.582 C295.426,256.582 293.601,255.876 290.875,256.446 C288.149,257.015 283.106,256.068 283.106,256.068" id="Fill-1517" fill="#0A0A08" mask="url(#mask-2)"></path>
            <path d="M267.958,270.79 C267.958,270.79 280.642,270.453 293.208,282.599 C293.208,282.599 285.927,287.495 282.799,290.173 C279.671,292.853 273.303,298.408 270.631,299.228 C270.631,299.228 277.369,280.714 267.958,270.79" id="Fill-1518" fill="#0A0A08" mask="url(#mask-2)"></path>
            <path d="M267.958,270.79 C267.958,270.79 233.909,276.209 209.733,298.281 C209.733,298.281 238.073,278.488 267.958,270.79" id="Fill-1519" fill="#ABA586" mask="url(#mask-2)"></path>
            <path d="M235.771,283.185 C235.771,283.185 253.073,282.31 259.403,287.501 C259.403,287.501 259.062,275.068 267.958,270.79 C267.958,270.79 246.529,275.902 235.771,283.185" id="Fill-1520" fill="#0A0A08" mask="url(#mask-2)"></path>
            <path d="M259.403,287.501 C259.403,287.501 262.01,298.919 270.631,299.228 C270.631,299.228 258.936,305.447 251.864,308.515 C251.864,308.515 252.046,297.367 259.403,287.501" id="Fill-1521" fill="#0A0A08" mask="url(#mask-2)"></path>
            <path d="M235.771,283.185 C235.771,283.185 230.544,289.352 231,300.517 C231,300.517 218.125,296.057 209.733,298.281 C209.733,298.281 226.424,286.939 235.771,283.185" id="Fill-1522" fill="#0A0A08" mask="url(#mask-2)"></path>
            <path d="M231,300.517 C231,300.517 226.853,309.046 235.771,315.498 L251.864,308.515 C251.864,308.515 234.194,308.744 231,300.517" id="Fill-1523" fill="#0A0A08" mask="url(#mask-2)"></path>
            <path d="M202.938,287.501 C202.938,287.501 196.85,298.47 197.94,309.705 C197.94,309.705 203.984,303.383 207.326,300.517 C210.668,297.654 217.466,291.307 224.161,287.501 C224.161,287.501 210.04,292.832 202.938,287.501" id="Fill-1524" fill="#0A0A08" mask="url(#mask-2)"></path>
            <path d="M237.388,273.814 C237.388,273.814 225.879,278.886 224.161,287.501 C224.161,287.501 241.274,277.318 254.616,274.055 C254.616,274.055 246.344,272.386 237.388,273.814" id="Fill-1525" fill="#0A0A08" mask="url(#mask-2)"></path>
            <path d="M197.94,309.705 C197.94,309.705 188.224,304.496 175.22,305.866 C175.22,305.866 173.8,313.23 162.874,325.803 C162.874,325.803 175.952,322.541 183.849,318.766 C183.849,318.766 193.511,315.595 197.94,309.705" id="Fill-1526" fill="#0A0A08" mask="url(#mask-2)"></path>
            <path d="M175.22,305.866 C175.22,305.866 164.383,300.978 156.626,303.023 C156.626,303.023 170.495,275.167 173.256,270.955 C173.256,270.955 182.811,284.539 175.22,305.866" id="Fill-1527" fill="#0A0A08" mask="url(#mask-2)"></path>
            <path d="M147.331,271.57 C147.331,271.57 146.512,289.611 156.626,303.023 C156.626,303.023 170.495,276.08 173.256,270.955 C173.256,270.955 152.179,268.187 147.331,271.57" id="Fill-1528" fill="#0A0A08" mask="url(#mask-2)"></path>
            <path d="M39.761,390.39 C39.761,390.39 29.381,409.441 32.231,428.605 C32.231,428.605 32.301,409.212 41.449,393.927 C41.449,393.927 43.326,389.237 39.761,390.39" id="Fill-1529" fill="#0A0A08" mask="url(#mask-2)"></path>
            <path d="M42.527,391.931 C42.527,391.931 37.052,414.689 43.725,435.222 C43.725,435.222 40.816,408.359 45.607,395.697 C45.607,395.697 47.004,391.622 44.11,391.247 C44.11,391.247 43.212,390.648 42.527,391.931" id="Fill-1530" fill="#0A0A08" mask="url(#mask-2)"></path>
            <path d="M172.938,27.079 C172.938,27.079 187.768,11.337 186.627,0.728 C186.627,0.728 191.331,8.969 174.763,28.448 C174.763,28.448 173.979,28.904 173.38,28.448 C172.781,27.991 172.938,27.079 172.938,27.079" id="Fill-1531" fill="#0A0A08" mask="url(#mask-2)"></path>
            <path d="M176.711,27.988 C176.711,27.988 186.808,19.014 188.176,3.529 C188.176,3.529 187.487,11.482 182.356,17.302 C182.356,17.302 177.004,25.675 175.728,27.261 L176.711,27.988" id="Fill-1532" fill="#0A0A08" mask="url(#mask-2)"></path>
            <path d="M61.273,223.409 C61.273,226.195 59.016,228.453 56.231,228.453 C53.445,228.453 51.188,226.195 51.188,223.409 C51.188,220.624 53.445,218.366 56.231,218.366 C59.016,218.366 61.273,220.624 61.273,223.409" id="Fill-1533" fill="#0A0A08" mask="url(#mask-2)"></path>
            <path d="M227.889,156.25 C227.889,159.227 225.476,161.64 222.499,161.64 C219.521,161.64 217.109,159.227 217.109,156.25 C217.109,153.273 219.521,150.861 222.499,150.861 C225.476,150.861 227.889,153.273 227.889,156.25" id="Fill-1534" fill="#0A0A08" mask="url(#mask-2)"></path>
            <path d="M79.668,102.808 C79.668,102.808 83.177,108.856 87.967,107.019 L87.529,106.43 L84.694,103.665 L81.958,102.381 L80.46,102.167 L79.668,102.808" id="Fill-1535" fill="#0A0A08" mask="url(#mask-2)"></path>
            <path d="M80.995,103.065 C80.995,103.065 81.997,107.114 87.529,106.658 C87.529,106.658 83.585,102.836 80.995,103.065" id="Fill-1536" fill="#FFFFFF" mask="url(#mask-2)"></path>
            <path d="M105.295,205.68 C105.295,205.68 108.985,200.575 108.409,198.909 C108.409,198.909 112.994,201.647 114.647,201.655 C114.647,201.655 112.812,209.279 111.548,212.436 C111.548,212.436 111.112,206.217 105.295,205.68" id="Fill-1537" fill="#0A0A08" mask="url(#mask-2)"></path>
            <path d="M57.742,303.023 C57.742,303.023 68.34,300.4 76.436,313.314 C76.436,313.314 86.716,333.273 103.235,333.812 C103.235,333.812 80.77,335.549 71.701,319.554 C71.701,319.554 64.466,335.549 79.14,354.289 C79.14,354.289 63.54,346.588 60.75,319.554 C60.75,319.554 36.84,353.947 6.168,329.822 C6.168,329.822 39.02,347.445 55.617,311 C55.617,311 7.879,331.011 4.798,289.783 C4.798,289.783 3.849,325.384 57.742,303.023" id="Fill-1538" fill="#D2232A" mask="url(#mask-2)"></path>
            <path d="M48.26,361.246 C48.26,361.246 43.477,387.382 41.719,396.16 C41.719,396.16 48.174,367.944 48.26,361.246" id="Fill-1539" fill="#8A8976" mask="url(#mask-2)"></path>
            <path d="M89.153,155.189 C89.153,155.189 78.625,155.18 75.875,158.602 C75.875,158.602 77.378,148.337 82.515,146.446 C82.515,146.446 87.188,153.223 89.153,155.189" id="Fill-1540" fill="#0A0A08" mask="url(#mask-2)"></path>
            <path d="M75.875,158.602 C75.875,158.602 68.232,160.449 64.863,165.514 C64.863,165.514 59.889,161.694 58.717,155.189 C58.717,155.189 66.19,151.244 75.875,158.602" id="Fill-1541" fill="#0A0A08" mask="url(#mask-2)"></path>
            <path d="M58.717,155.189 C58.717,155.189 64.158,139.441 70.325,139.497 C70.325,139.497 62.545,137.16 63.921,131.417 C63.921,131.417 51.551,138.075 58.204,150.491 C64.856,162.908 58.269,150.666 58.269,150.666 C58.269,150.666 57.74,151.309 57.932,152.149 C58.123,152.99 58.717,155.189 58.717,155.189" id="Fill-1542" fill="#0A0A08" mask="url(#mask-2)"></path>
            <path d="M70.325,139.497 C70.325,139.497 71.382,135.184 73.552,134.502 C73.552,134.502 79.126,144.185 82.515,146.446 C82.515,146.446 74.424,147.997 70.325,139.497" id="Fill-1543" fill="#0A0A08" mask="url(#mask-2)"></path>
            <path d="M83.738,197.484 C83.738,197.484 83.025,193.407 85.377,187.982 C85.377,187.982 78.998,187.82 74.922,183.648 C74.922,183.648 80.662,194.275 83.738,197.484" id="Fill-1544" fill="#0A0A08" mask="url(#mask-2)"></path>
            <path d="M74.922,183.648 C74.922,183.648 73.31,178.663 74.687,175.875 C74.687,175.875 67.349,170.345 64.863,165.514 C64.863,165.514 72.752,181.29 74.922,183.648" id="Fill-1545" fill="#0A0A08" mask="url(#mask-2)"></path>
            <path d="M156.626,303.023 C156.626,303.023 141.026,316.23 141.355,332.352 C141.355,332.352 142.603,327.253 144.837,330.505 C144.837,330.505 156.689,328.287 162.874,325.803 C162.874,325.803 154.629,316.433 156.626,303.023" id="Fill-1546" fill="#0A0A08" mask="url(#mask-2)"></path>
            <path d="M162.874,325.803 C162.874,325.803 137.063,303.984 113.621,322.463 C113.621,322.463 147.331,313.314 152.951,335.549 C152.951,335.549 119.097,337.007 118.165,373.21 C118.165,373.21 132.442,340.885 156.626,345.679 C156.626,345.679 161.265,366.211 141.606,391.533 C141.606,391.533 161.103,381.961 165.525,353.682 C165.525,353.682 178.528,359.138 178.756,389.71 C178.756,389.71 184.601,358.033 170.83,350.225 C170.83,350.225 156.145,340.759 162.874,325.803" id="Fill-1547" fill="#A58633" mask="url(#mask-2)"></path>
            <path d="M116.962,322.463 C116.962,324.308 115.467,325.803 113.621,325.803 C111.777,325.803 110.282,324.308 110.282,322.463 C110.282,320.619 111.777,319.125 113.621,319.125 C115.467,319.125 116.962,320.619 116.962,322.463" id="Fill-1548" fill="#A58633" mask="url(#mask-2)"></path>
            <path d="M113.621,319.808 C112.158,319.808 110.966,321 110.966,322.463 C110.966,323.928 112.158,325.12 113.621,325.12 C115.085,325.12 116.277,323.928 116.277,322.463 C116.277,321 115.085,319.808 113.621,319.808 L113.621,319.808 Z M113.621,326.49 C111.403,326.49 109.597,324.683 109.597,322.463 C109.597,320.244 111.403,318.439 113.621,318.439 C115.841,318.439 117.646,320.244 117.646,322.463 C117.646,324.683 115.841,326.49 113.621,326.49 L113.621,326.49 Z" id="Fill-1549" fill="#D9242A" mask="url(#mask-2)"></path>
            <path d="M122.095,373.2 C122.095,375.044 120.599,376.54 118.755,376.54 C116.91,376.54 115.415,375.044 115.415,373.2 C115.415,371.355 116.91,369.859 118.755,369.859 C120.599,369.859 122.095,371.355 122.095,373.2" id="Fill-1550" fill="#A58633" mask="url(#mask-2)"></path>
            <path d="M118.755,370.543 C117.291,370.543 116.1,371.735 116.1,373.2 C116.1,374.666 117.291,375.855 118.755,375.855 C120.219,375.855 121.41,374.666 121.41,373.2 C121.41,371.735 120.219,370.543 118.755,370.543 L118.755,370.543 Z M118.755,377.225 C116.536,377.225 114.73,375.418 114.73,373.2 C114.73,370.98 116.536,369.175 118.755,369.175 C120.975,369.175 122.779,370.98 122.779,373.2 C122.779,375.418 120.975,377.225 118.755,377.225 L118.755,377.225 Z" id="Fill-1551" fill="#D9242A" mask="url(#mask-2)"></path>
            <path d="M144.947,391.533 C144.947,393.38 143.451,394.874 141.606,394.874 C139.762,394.874 138.267,393.38 138.267,391.533 C138.267,389.687 139.762,388.192 141.606,388.192 C143.451,388.192 144.947,389.687 144.947,391.533" id="Fill-1552" fill="#A58633" mask="url(#mask-2)"></path>
            <path d="M141.606,388.878 C140.143,388.878 138.951,390.07 138.951,391.533 C138.951,392.996 140.143,394.189 141.606,394.189 C143.07,394.189 144.262,392.996 144.262,391.533 C144.262,390.07 143.07,388.878 141.606,388.878 L141.606,388.878 Z M141.606,395.558 C139.387,395.558 137.583,393.752 137.583,391.533 C137.583,389.316 139.387,387.509 141.606,387.509 C143.825,387.509 145.631,389.316 145.631,391.533 C145.631,393.752 143.825,395.558 141.606,395.558 L141.606,395.558 Z" id="Fill-1553" fill="#D9242A" mask="url(#mask-2)"></path>
            <path d="M181.905,389.365 C181.905,391.208 180.41,392.707 178.565,392.707 C176.721,392.707 175.226,391.208 175.226,389.365 C175.226,387.521 176.721,386.027 178.565,386.027 C180.41,386.027 181.905,387.521 181.905,389.365" id="Fill-1554" fill="#A58633" mask="url(#mask-2)"></path>
            <path d="M178.565,386.711 C177.102,386.711 175.909,387.904 175.909,389.365 C175.909,390.83 177.102,392.021 178.565,392.021 C180.03,392.021 181.221,390.83 181.221,389.365 C181.221,387.904 180.03,386.711 178.565,386.711 L178.565,386.711 Z M178.565,393.39 C176.347,393.39 174.541,391.585 174.541,389.365 C174.541,387.146 176.347,385.343 178.565,385.343 C180.784,385.343 182.59,387.146 182.59,389.365 C182.59,391.585 180.784,393.39 178.565,393.39 L178.565,393.39 Z" id="Fill-1555" fill="#D9242A" mask="url(#mask-2)"></path>
            <path d="M205.936,360.876 C205.936,362.72 204.441,364.217 202.597,364.217 C200.752,364.217 199.256,362.72 199.256,360.876 C199.256,359.033 200.752,357.538 202.597,357.538 C204.441,357.538 205.936,359.033 205.936,360.876" id="Fill-1556" fill="#A58633" mask="url(#mask-2)"></path>
            <path d="M202.597,358.222 C201.133,358.222 199.941,359.414 199.941,360.876 C199.941,362.341 201.133,363.534 202.597,363.534 C204.061,363.534 205.252,362.341 205.252,360.876 C205.252,359.414 204.061,358.222 202.597,358.222 L202.597,358.222 Z M202.597,364.902 C200.377,364.902 198.572,363.097 198.572,360.876 C198.572,358.66 200.377,356.853 202.597,356.853 C204.816,356.853 206.621,358.66 206.621,360.876 C206.621,363.097 204.816,364.902 202.597,364.902 L202.597,364.902 Z" id="Fill-1557" fill="#D9242A" mask="url(#mask-2)"></path>
            <path d="M117.53,73.52 C117.53,73.52 121.952,79.859 122.477,86.96 C122.477,86.96 123.936,78.568 135.104,79.128 C135.104,79.128 136.671,76.63 136.669,75.389 C136.668,74.148 136.708,74.415 136.708,74.415 L130.786,70.449 L119.836,70.905 L117.53,73.52" id="Fill-1558" fill="#D9222A" mask="url(#mask-2)"></path>
            <path d="M164.199,117.996 C166.596,109.329 160.366,70.54 160.366,70.54 C166.161,79.666 170.215,117.904 170.215,117.904 L172.439,116.852 L180.063,113.618 C175.896,122.019 176.2,123.48 176.2,123.48 C165.888,128.855 160.366,121.322 160.366,121.322" id="Fill-1559" fill="#D2232A" mask="url(#mask-2)"></path>
            <path d="M168.865,118.44 C168.865,118.44 174.027,77.954 208.415,64.22 C208.415,64.22 175.126,88.472 174.027,119.753 L168.865,118.44" id="Fill-1560" fill="#D2232A" mask="url(#mask-2)"></path>
            <path d="M95.675,129.283 C95.675,129.283 91.899,140.403 96.002,147.591 L89.87,137.891 L95.675,129.283" id="Fill-1561" fill="#0A0A08" mask="url(#mask-2)"></path>
            <path d="M91.9,137.891 C91.9,137.891 46.74,101.074 0.315,148.299 C0.315,148.299 37.993,106.43 85.898,144.685 L91.9,137.891" id="Fill-1562" fill="#0A0A08" mask="url(#mask-2)"></path>
            <path d="M89.87,137.891 C89.87,137.891 90.504,141.619 82.515,146.446 C82.515,146.446 88.227,142.485 95.679,147.375 C95.787,147.446 95.895,147.518 96.002,147.591" id="Fill-1563" fill="#0A0A08" mask="url(#mask-2)"></path>
            <path d="M96.002,147.591 C96.002,147.591 91.541,151.729 91.924,157.946 C91.924,157.946 95.149,151.777 101.876,155.189 C101.876,155.189 96.889,149.098 96.002,147.591" id="Fill-1564" fill="#0A0A08" mask="url(#mask-2)"></path>
            <path d="M101.876,155.189 C101.876,155.189 99.022,159.385 100.391,163.784 C100.391,163.784 104.905,160.925 111.545,163.784 C111.545,163.784 102.963,157.537 101.876,155.189" id="Fill-1565" fill="#0A0A08" mask="url(#mask-2)"></path>
            <path d="M126.038,183.176 C126.038,183.176 129.136,178.906 128.166,172.86 C128.166,172.86 130.416,185.627 134.023,189.107 C134.023,189.107 130.242,188.473 126.038,183.176" id="Fill-1566" fill="#0A0A08" mask="url(#mask-2)"></path>
            <path d="M124.728,141.149 C124.728,141.149 130.03,142.741 131.525,146.747 C131.525,146.747 128.361,154.918 117.854,151.285 C117.854,151.285 122.651,142.197 124.728,141.149" id="Fill-1567" fill="#0A0A08" mask="url(#mask-2)"></path>
            <path d="M117.854,151.285 C117.854,151.285 123.049,157.804 126.586,158.602 C126.586,158.602 116.158,160.399 111.545,163.784 C111.545,163.784 115.586,154.12 117.854,151.285" id="Fill-1568" fill="#0A0A08" mask="url(#mask-2)"></path>
            <path d="M111.545,163.784 C111.545,163.784 112.984,166.295 112.362,171.403 C112.362,171.403 116.337,166.89 121.396,167.594 C121.396,167.594 114.121,165.732 111.545,163.784" id="Fill-1569" fill="#0A0A08" mask="url(#mask-2)"></path>
            <path d="M121.396,167.594 C121.396,167.594 122.128,173.84 119.382,176.819 C119.382,176.819 123.546,172.291 128.166,172.86 L121.396,167.594" id="Fill-1570" fill="#0A0A08" mask="url(#mask-2)"></path>
            <path d="M126.586,158.602 C126.586,158.602 130.048,167.271 128.166,172.86 C128.166,172.86 141.04,167.33 143.928,162.281 C143.928,162.281 130.31,163.392 126.586,158.602" id="Fill-1571" fill="#0A0A08" mask="url(#mask-2)"></path>
            <path d="M131.601,142.023 C131.601,142.023 132.591,153.126 126.586,158.602 C126.586,158.602 135.067,151.287 142,153.576 C142,153.576 141.619,141.422 131.601,142.023" id="Fill-1572" fill="#0A0A08" mask="url(#mask-2)"></path>
            <path d="M117.854,151.285 C117.854,151.285 123.576,137.27 124.996,124.833 C124.996,124.833 125.763,137.995 124.728,142.183 C123.693,146.372 121.396,148.403 121.396,148.403 L117.854,151.285" id="Fill-1573" fill="#0A0A08" mask="url(#mask-2)"></path>
            <path d="M81.256,96.278 C81.256,96.278 87.386,71.476 98.793,64.22 C98.793,64.22 110.641,54.962 117.53,73.52 C117.53,73.52 115.394,59.848 106.066,60.688 C106.066,60.688 100.781,59.352 94.197,66.827 C94.197,66.827 85.132,74.532 81.256,96.278" id="Fill-1574" fill="#0A0A08" mask="url(#mask-2)"></path>
            <path d="M176.2,123.48 C176.2,123.48 166.437,129.229 160.224,121.041 C160.224,121.041 165.089,127.714 176.2,123.48" id="Fill-1575" fill="#0A0A08" mask="url(#mask-2)"></path>
            <path d="M162.874,325.803 C162.874,325.803 158.684,340.286 170.83,350.225 C170.83,350.225 156.056,341.855 162.874,325.803" id="Fill-1576" fill="#0A0A08" mask="url(#mask-2)"></path>
            <path d="M113.424,33.065 C113.424,33.065 116.393,38.828 121.396,39.513 C121.396,39.513 115.507,40.137 113.424,36.288 C113.424,36.288 106.321,38.829 110.2,41.794 C114.078,44.759 117.561,43.96 117.53,43.96 C117.5,43.96 118.302,43.876 117.561,43.96 C116.82,44.045 109.172,45.786 107.576,42.25 C107.576,42.25 107.006,52.061 116.245,51.147 C116.245,51.147 103.989,56.053 101.007,43.484 L113.424,33.065" id="Fill-1577" fill="#0A0A08" mask="url(#mask-2)"></path>
            <path d="M95.059,48.026 C95.059,48.026 95.941,53.543 100.275,53.885 C100.275,53.885 97.092,49.549 98.222,47.155 C99.353,44.76 100.479,44.675 101.518,45.23 L101.007,43.484 C101.007,43.484 95.752,47.583 95.059,48.026" id="Fill-1578" fill="#0A0A08" mask="url(#mask-2)"></path>
        </g>
    </g>
</svg>